<?xml version="1.0" encoding="UTF-8"?>
<svg id="Layer_1_copy" xmlns="http://www.w3.org/2000/svg" version="1.1" viewBox="0 0 187.59 187.83">
  <!-- Generator: Adobe Illustrator 30.2.1, SVG Export Plug-In . SVG Version: 2.1.1 Build 1)  -->
  <path d="M25.92,90.66l-20.51-1.62-.51,6.32L0,94.97l1.44-18.06,4.91.39-.5,6.29,20.51,1.62-.44,5.45ZM26.83,78.3l-23.8-9.17,1.97-5.1,9.29,3.58,3.31-8.57-9.29-3.58,1.97-5.1,23.8,9.17-1.97,5.1-9.89-3.81-3.31,8.57,9.89,3.81s-1.97,5.1-1.97,5.1ZM35.03,58.34l-20.17-15.62,10.37-13.41,3.89,3.01-7.09,9.16,4.12,3.19,6.36-8.21,3.78,2.93-6.36,8.21,4.49,3.47,7.25-9.36,3.89,3.01-10.53,13.61h0ZM46.34,27.67l-.34-.63c-3.57-6.6-2.19-13.43,3.84-16.7,5.24-2.83,10.67-1.08,13.92,4.23l-4.84,2.62c-1.82-2.89-4.34-3.73-6.79-2.41-3.16,1.71-3.39,5.43-1.15,9.57l.34.63c2.24,4.14,5.49,5.93,8.65,4.22,2.45-1.33,3.11-3.97,1.53-7.16l4.84-2.62c2.77,5.73,1.43,11.27-3.95,14.19-6.15,3.33-12.48.67-16.05-5.93h0ZM68.89,16.05l-.12-.71c-1.28-7.33,2.1-13.43,9.01-14.63,6.95-1.21,12.18,3.4,13.46,10.73l.12.71c1.28,7.33-2.1,13.43-9.04,14.63-6.92,1.2-12.15-3.4-13.43-10.73ZM85.78,13.12l-.12-.71c-.83-4.75-3.36-7.41-7.02-6.77-3.67.64-5.12,3.99-4.29,8.74l.12.71c.83,4.75,3.39,7.4,6.99,6.78,3.67-.64,5.15-4,4.32-8.74h0ZM94.15,16.36l5.37.69c-.02,2.71,1.53,4.29,4.23,4.64,2.41.31,3.95-.51,4.17-2.22l.02-.14c.22-1.71-.71-2.59-4.9-4-5.35-1.81-7.4-4.39-6.86-8.56l.03-.25c.6-4.63,4.7-7.07,9.84-6.41,5.33.69,8.56,4.04,8.26,9.4l-5.37-.69c.08-2.42-1.21-3.74-3.59-4.05-2.31-.3-3.55.7-3.75,2.2v.11c-.2,1.46.34,2.36,4.57,3.71,5.11,1.64,7.82,4.19,7.25,8.58l-.04.29c-.63,4.92-4.95,7.44-10.38,6.74-6.04-.78-9.25-4.52-8.87-10.02l.02-.02ZM113.04,26.8l11.39-22.84,6.95,3.47-3.44,18.21,12.5-13.69,6.57,3.28-11.39,22.84-4.6-2.3,8.25-16.53-12.97,14.18-3.79-1.89,3.5-18.98-8.28,16.6-4.69-2.34h0ZM136.32,39.43l18.07-18.01,11.97,12.01-3.49,3.48-8.18-8.21-3.69,3.68,7.33,7.36-3.39,3.37-7.33-7.36-4.02,4.01,8.36,8.39-3.49,3.48-12.15-12.2h.01ZM151.62,57.04l17.83-10.28-3.17-5.49,4.26-2.46,9.05,15.7-4.26,2.46-3.15-5.47-17.83,10.28-2.73-4.74h0ZM157.49,68.65l24.13-8.3,1.79,5.2-24.13,8.3s-1.79-5.2-1.79-5.2ZM172.73,73.54l.71-.08c7.47-.86,13.29,2.97,14.07,9.79.68,5.92-2.98,10.31-9.12,11.35l-.62-5.47c3.37-.61,5.09-2.64,4.77-5.4-.41-3.57-3.77-5.17-8.45-4.64l-.71.08c-4.68.54-7.56,2.89-7.15,6.46.32,2.77,2.53,4.37,6.08,4.09l.62,5.47c-6.36.44-11-2.88-11.7-8.96-.79-6.95,4.04-11.84,11.5-12.69h0ZM1.1,122.96l23.44-10.1,6.67,15.49-4.52,1.95-4.44-10.32-5.35,2.3,3.95,9.17-4.49,1.93-3.95-9.17-9.08,3.91-2.23-5.17h0ZM20.08,135.82l.55-.46c5.71-4.77,12.79-4.76,17.49.86,4.72,5.64,3.48,12.62-2.23,17.39l-.55.46c-5.71,4.77-12.79,4.76-17.51-.88-4.7-5.61-3.46-12.59,2.25-17.36h0ZM31.56,149.53l.55-.46c3.69-3.09,4.67-6.68,2.18-9.65-2.49-2.98-6.18-2.62-9.87.47l-.55.46c-3.69,3.09-4.65,6.71-2.2,9.63,2.49,2.98,6.2,2.65,9.89-.44h0ZM31.71,166.69l13.85-21.43,9.12,5.9c4.28,2.77,5.92,7.25,2.99,11.78l-.19.3c-2.11,3.26-5.11,4.36-8.25,3.69l-.32,10.88-5.24-3.39.49-9.95-3.03-1.96-4.68,7.24-4.73-3.06h-.01ZM43.8,158.37l3.88,2.51c1.81,1.17,3.61,1.13,4.87-.83l.2-.3c1.27-1.96.57-3.61-1.25-4.79l-3.88-2.51-3.82,5.91h0ZM56.79,181.57l6.08-24.79,7.86,1.92.86,18.57,9.39-16.06,7.44,1.82-6.09,24.79-5.21-1.28,4.4-17.95-9.74,16.64-4.29-1.05-.98-19.34-4.42,18.02-5.31-1.3h0ZM91.74,178.12l-1.42-15.43,5.68-.52,1.41,15.36c.32,3.47,1.85,5.32,5.07,5.02,3.19-.29,4.43-2.32,4.1-5.9l-1.41-15.32,5.64-.52,1.42,15.43c.62,6.73-2.5,10.77-9.29,11.39s-10.59-2.75-11.21-9.51h.01ZM121.99,183.77l-8.93-23.89,5.34-1.99,7.21,19.28,8.6-3.2,1.72,4.61-13.94,5.2h0ZM153.53,167.8l-4.17-3.3-7.65,5.07,1.42,5.14-4.81,3.19-6.58-26.23,5.17-3.43,21.59,16.27-4.98,3.3h0ZM140.38,164.76l5.09-3.38-7.76-6.14,2.67,9.52ZM161.13,161.78l-19.15-16.85,7.18-8.15c3.37-3.83,8.04-4.79,12.09-1.23l.27.24c2.91,2.56,3.56,5.69,2.44,8.71l10.71,1.91-4.13,4.69-9.77-1.95-2.39,2.71,6.48,5.69-3.72,4.23h0ZM154.68,148.6l3.06-3.47c1.43-1.62,1.65-3.4-.1-4.94l-.27-.24c-1.75-1.54-3.49-1.09-4.91.53l-3.06,3.47,5.29,4.65h0ZM180.17,136.07l-7.52-3.6-18.99-.12,2.64-5.51,12.44.5-8.23-9.29,2.55-5.33,12.05,14.64,7.52,3.6-2.45,5.11h-.01Z"/>
</svg>